# xmcd
#
# Track frame offsets:
# 150
# 16409
# 34573
# 49317
# 70145
# 88723
# 100998
# 118115
# 127552
# 143520
# 156089
#
# Disc length: 2890 seconds
#
# Revision: 0
# Processed by: cddbd v1.5.2PL0 Copyright (c) Steve Scherf et al.
# Submitted via: Audion 3.0.2 (http://www.panic.com/audion/)
#
DISCID=860b480b
DTITLE=Attilio - pizzica
DYEAR=1900
DGENRE=
TTITLE0=attilio 1
TTITLE1=attilio 2
TTITLE2=attilio 3
TTITLE3=attilio 4
TTITLE4=attilio 5
TTITLE5=attilio 6
TTITLE6=attilio 7
TTITLE7=attilio 8
TTITLE8=attilio 9
TTITLE9=attilio 10
TTITLE10=attilio 11
EXTD=
EXTT0=
EXTT1=
EXTT2=
EXTT3=
EXTT4=
EXTT5=
EXTT6=
EXTT7=
EXTT8=
EXTT9=
EXTT10=
PLAYORDER=
